<?xml version="1.0" encoding="utf-8"?>
<!-- Generator: Adobe Illustrator 19.2.1, SVG Export Plug-In . SVG Version: 6.00 Build 0)  -->
<svg version="1.1" id="Layer_1" xmlns="http://www.w3.org/2000/svg" xmlns:xlink="http://www.w3.org/1999/xlink" x="0px" y="0px"
	 viewBox="0 0 130 27" style="enable-background:new 0 0 130 27;" xml:space="preserve">
<style type="text/css">
	.st0{fill:none;}
	.st1{fill:#FFFFFF;}
	.st2{fill:#36495A;}
	.st3{fill:url(#Red_Gradient_2_);}
	.st4{fill:url(#Beak_Shadow_1_);}
	.st5{fill:url(#Beak_1_);}
	.st6{fill:url(#Blue_Gradient_1_);}
</style>
<g id="American_Airlines_Logo_w_x2F__Clear_Space">
	<rect id="CLEAR_SPACE" x="-16.6" y="-5.8" class="st0" width="162.1" height="38.2"/>
	<g id="American_Airlines_Logo_1_">
		<path id="TM_2_" class="st1" d="M127.7,22.1v0.1h-0.3v0.7h-0.1v-0.7H127v-0.1H127.7z M128.1,22.1l0.2,0.7l0,0l0.2-0.7h0.2l0.1,0.9
			h-0.1l-0.1-0.7l0,0l-0.2,0.7h-0.1l-0.2-0.7l0,0l-0.1,0.7h-0.1l0.1-0.9H128.1z"/>
		<path id="American_Airlines_Logotype" class="st2" d="M57,19.1v-4.6c0-0.9-0.4-1.4-1.1-1.4c-1,0-1.6,1.1-1.6,2.5v3.5h-1.6
			c0,0,0-5.1,0-5.2c0-0.6-0.1-1.4-0.1-1.9c0,0,0.8,0,1.3,0c0.2,0,0.2,0.1,0.2,0.2c0,0.2,0,0.9,0,0.9h0c0.2-0.3,0.7-1.2,2.2-1.2
			c1.5,0,2.4,1.1,2.4,2.2v5L57,19.1L57,19.1z M44.3,17.5c0.1,0,0.1,0,0.1,0.2c0,0.3,0.1,0.9,0.1,1.1c-0.3,0.2-1,0.5-1.9,0.5
			c-2.2,0-3.5-1.2-3.5-3.7c0-2.3,1.2-3.7,3.5-3.7c0.8,0,1.5,0.3,1.9,0.5c0,0.3,0,0.8-0.1,1.1c0,0.1-0.1,0.2-0.1,0.2s-0.1,0-0.1,0
			c-0.5-0.3-1-0.4-1.5-0.4c-1.4,0-1.9,0.9-1.9,2.4c0,1.4,0.5,2.4,1.9,2.4c0.6,0,1.1-0.2,1.4-0.3C44.2,17.6,44.2,17.5,44.3,17.5z
			 M49.9,19.1c-0.1,0-0.2-0.1-0.3-0.2c0-0.2-0.1-0.7-0.1-0.7l0,0c-0.1,0.1-0.7,1.1-2.2,1.1c-1.4,0-2.2-1.1-2.2-2.3
			c0-1.7,1.6-2.5,4-2.5c0,0,0.3,0,0.3,0v-0.3c0-0.7-0.5-1.1-1.5-1.1c-0.9,0-1.6,0.3-1.9,0.5c0,0-0.1,0.1-0.1,0.1
			c-0.1,0-0.1-0.1-0.1-0.1c0-0.3-0.1-0.8-0.1-1.1c0.3-0.1,1.3-0.5,2.3-0.5c2.1,0,3,1,3,2.5v2.8c0,1,0.1,1.7,0.1,1.9
			C51.2,19.1,50,19.1,49.9,19.1z M49.5,15.5c0,0-0.2,0-0.3,0c-2,0-2.4,0.7-2.4,1.4c0,0.6,0.4,1.1,1.1,1.1c1,0,1.6-1,1.6-2V15.5z
			 M29.2,17.5c0.1,0,0.1,0.1,0.1,0.2c0,0.3,0.1,1,0.1,1.2c-0.2,0.1-1,0.4-2.2,0.4c-2.3,0-3.6-1.2-3.6-3.7c0-2.2,1.2-3.7,3.3-3.7
			c2,0,3,1.4,3,3.1c0,0.2,0,0.5-0.1,1h-4.6c0,1.2,0.8,2.1,2.2,2.1c0.8,0,1.4-0.3,1.7-0.4C29.1,17.6,29.1,17.5,29.2,17.5z M25.2,14.8
			h3c0.1-1.1-0.5-1.8-1.5-1.8C25.8,13,25.2,13.7,25.2,14.8z M20.7,19.1v-4.6c0-0.8-0.3-1.5-1.2-1.5c-1,0-1.5,1-1.5,2.5v3.5h-1.6
			v-4.6c0-0.7-0.3-1.4-1.2-1.4c-1,0-1.5,1-1.5,2.5v3.5h-1.6c0,0,0-4.5,0-5.2c0-0.7-0.1-1.6-0.1-1.9c0,0,0.8,0,1.3,0
			c0.1,0,0.2,0.1,0.2,0.2c0,0.2,0,0.9,0,0.9h0c0.1-0.2,0.6-1.2,2.1-1.2c1.4,0,1.9,1,2,1.3c0.1-0.3,0.7-1.3,2.2-1.3
			c1.5,0,2.4,0.8,2.4,2.3v4.9L20.7,19.1L20.7,19.1z M32.7,15.6v3.5h-1.6c0,0,0-4.8,0-5.3c0-0.5-0.1-1.5-0.1-1.8c0,0,0.7,0,1.3,0
			c0.1,0,0.2,0.1,0.2,0.2c0,0.2,0,0.9,0,0.9h0c0.1-0.3,0.6-1.2,1.9-1.2c0.5,0,0.8,0.1,0.8,0.2c0,0.3,0,1-0.1,1.2
			c0,0.1-0.1,0.2-0.1,0.2c-0.1,0-0.1,0-0.1,0c-0.1-0.1-0.3-0.1-0.7-0.1C33.5,13.2,32.7,13.8,32.7,15.6z M36.1,19.1V12h1.6v7.1H36.1z
			 M36.1,10.9V9.4h1.6v1.6H36.1z M9.6,19.1L8.9,17h-4l-0.7,2.1H2.5l3.6-9.4h1.9l3.5,9.4L9.6,19.1z M6.9,11.5L6.9,11.5l-1.5,4.3h3.1
			L6.9,11.5z M102.4,19.2c2.1,0,3.1-0.8,3.1-2.2c0-1.3-0.9-1.8-1.9-2.1c-0.3-0.1-0.5-0.2-0.8-0.3c-0.6-0.2-1-0.5-1-0.9
			c0-0.5,0.4-0.7,1.2-0.7c0.7,0,1.4,0.3,1.6,0.4c0.1,0,0.1,0.1,0.1,0.1c0.1,0,0.1,0,0.1-0.2c0-0.2,0.1-0.7,0.1-1.1
			c-0.2-0.1-0.9-0.5-2-0.5c-1.8,0-2.8,0.9-2.8,2.1c0,1.2,0.8,1.7,1.7,2c0.2,0.1,0.6,0.2,0.8,0.3c0.9,0.3,1.2,0.6,1.2,1
			c0,0.6-0.6,0.8-1.6,0.8c-0.8,0-1.4-0.3-1.6-0.4c-0.1,0-0.1-0.1-0.1-0.1c-0.1,0-0.1,0.2-0.1,0.2c0,0.1-0.1,0.8-0.1,1.1
			C100.5,18.9,101.3,19.2,102.4,19.2z M98.6,17.5c0.1,0,0.1,0.1,0.1,0.2c0,0.3,0.1,1,0.1,1.2c-0.2,0.1-1,0.4-2.2,0.4
			c-2.3,0-3.6-1.2-3.6-3.7c0-2.2,1.2-3.7,3.3-3.7c2,0,3,1.4,3,3.1c0,0.2,0,0.5-0.1,1h-4.6c0,1.2,0.8,2.1,2.2,2.1
			c0.8,0,1.4-0.3,1.7-0.4C98.5,17.6,98.6,17.5,98.6,17.5z M94.6,14.8h3c0.1-1.1-0.5-1.8-1.5-1.8C95.2,13,94.7,13.7,94.6,14.8z
			 M90.2,19.1v-4.6c0-0.9-0.4-1.4-1.2-1.4c-1,0-1.6,1.1-1.6,2.5v3.5h-1.6c0,0,0-5.1,0-5.2c0-0.6-0.1-1.4-0.1-1.9c0,0,0.8,0,1.3,0
			c0.2,0,0.2,0.1,0.2,0.2c0,0.2,0,0.9,0,0.9h0c0.2-0.3,0.7-1.2,2.2-1.2c1.5,0,2.4,1.1,2.4,2.2v5L90.2,19.1L90.2,19.1z M75.4,15.6
			v3.5h-1.6c0,0,0-4.8,0-5.3c0-0.5-0.1-1.5-0.1-1.8c0,0,0.7,0,1.3,0c0.1,0,0.2,0.1,0.2,0.2c0,0.2,0,0.9,0,0.9h0
			c0.1-0.3,0.6-1.2,1.9-1.2c0.5,0,0.8,0.1,0.9,0.2c0,0.3,0,1-0.1,1.2c0,0.1-0.1,0.2-0.1,0.2c-0.1,0-0.1,0-0.1,0
			c-0.1-0.1-0.3-0.1-0.7-0.1C76.2,13.2,75.4,13.8,75.4,15.6z M80.6,19.1V9.4h-1.6v9.7L80.6,19.1z M70.4,19.1V12H72v7.1H70.4z
			 M70.4,10.9V9.4H72v1.6H70.4z M82.3,19.1V12H84v7.1H82.3z M82.3,10.9V9.4H84v1.6H82.3z M68,19.1L67.2,17h-4l-0.7,2.1h-1.7l3.6-9.4
			h1.9l3.5,9.4L68,19.1z M65.2,11.5L65.2,11.5l-1.5,4.3h3.1L65.2,11.5z"/>
		<g id="Flight_Symbol_5_">
			
				<linearGradient id="Red_Gradient_2_" gradientUnits="userSpaceOnUse" x1="120.8958" y1="13.3331" x2="120.8958" y2="0.9162" gradientTransform="matrix(1 0 0 -1 0 28)">
				<stop  offset="0" style="stop-color:#ED1C24"/>
				<stop  offset="0.1471" style="stop-color:#E51C24"/>
				<stop  offset="0.2996" style="stop-color:#D61C23"/>
				<stop  offset="0.4545" style="stop-color:#C11A20"/>
				<stop  offset="0.6112" style="stop-color:#A4171C"/>
				<stop  offset="0.7677" style="stop-color:#821013"/>
				<stop  offset="0.81" style="stop-color:#780E0F"/>
			</linearGradient>
			<path id="Red_Gradient_1_" class="st3" d="M117.5,21.2c1.1,1.8,2.8,1.8,3.3,1.8h5.6l-6.6-8c-3.1,0.1-4.7,2.1-4.4,2.9L117.5,21.2z
				"/>
			
				<linearGradient id="Beak_Shadow_1_" gradientUnits="userSpaceOnUse" x1="115.2217" y1="12.3008" x2="119.7534" y2="12.3008" gradientTransform="matrix(1 0 0 -1 0 28)">
				<stop  offset="0" style="stop-color:#69231D"/>
				<stop  offset="0.1406" style="stop-color:#7A2720"/>
				<stop  offset="0.5166" style="stop-color:#A72F27"/>
				<stop  offset="0.8162" style="stop-color:#C5332A"/>
				<stop  offset="1" style="stop-color:#D1342A"/>
			</linearGradient>
			<path id="Beak_Shadow_3_" class="st4" d="M115.4,17.8c0,0-0.2-0.4-0.2-0.9c0-1.8,1.6-2.9,3.5-3.3l1,1.3
				C116.7,15,115.1,17,115.4,17.8z"/>
			
				<linearGradient id="Beak_1_" gradientUnits="userSpaceOnUse" x1="114.7235" y1="12.9629" x2="119.7732" y2="15.9971" gradientTransform="matrix(1 0 0 -1 0 28)">
				<stop  offset="0.1" style="stop-color:#EFF2F4"/>
				<stop  offset="0.3638" style="stop-color:#D5DDE1"/>
				<stop  offset="0.8932" style="stop-color:#A1B0B9"/>
				<stop  offset="1" style="stop-color:#96A7B0"/>
			</linearGradient>
			<path id="Beak_3_" class="st5" d="M118,11.8c-2.8,0-4.9,0.5-4.9,1.6c0,0.4,0.1,0.7,0.5,1.4l1.9,3.1c0,0-0.2-0.4-0.2-0.9
				c0-1.8,1.6-2.9,3.5-3.3c0.5-0.1,1.1-0.2,1.6-0.2c0.5,0,0.9,0,1.2,0.1C121.3,12.9,120.8,11.8,118,11.8z"/>
			
				<linearGradient id="Blue_Gradient_1_" gradientUnits="userSpaceOnUse" x1="111.9641" y1="15.5173" x2="111.9641" y2="24.0961" gradientTransform="matrix(1 0 0 -1 0 28)">
				<stop  offset="0" style="stop-color:#1C2F72"/>
				<stop  offset="0.1391" style="stop-color:#004B88"/>
				<stop  offset="0.2977" style="stop-color:#0066A0"/>
				<stop  offset="0.4543" style="stop-color:#007EB7"/>
				<stop  offset="0.6056" style="stop-color:#0092CB"/>
				<stop  offset="0.75" style="stop-color:#00A1DB"/>
				<stop  offset="0.8847" style="stop-color:#00ABE7"/>
				<stop  offset="1" style="stop-color:#00AFEB"/>
			</linearGradient>
			<path id="Blue_Gradient_2_" class="st6" d="M110.6,9.9c0.8,1.2,1.1,1.6,2.9,1.6c1.4,0,3.5,0,3.5,0l-4.8-6.1
				c-1.1-1.3-1.7-1.6-2.7-1.6h-2.6L110.6,9.9z"/>
		</g>
	</g>
</g>
</svg>
