<?xml version="1.0" encoding="utf-8"?>
<!-- Generator: Adobe Illustrator 19.2.1, SVG Export Plug-In . SVG Version: 6.00 Build 0)  -->
<svg version="1.1" id="Layer_1" xmlns="http://www.w3.org/2000/svg" xmlns:xlink="http://www.w3.org/1999/xlink" x="0px" y="0px"
	 viewBox="0 0 112 30" style="enable-background:new 0 0 112 30;" xml:space="preserve">
<style type="text/css">
	.st0{fill:#FFFFFF;}
	.st1{fill:#EE0000;}
</style>
<g>
	<path class="st0" d="M95.2,12.9c-1.1-0.1-6-1.2-10,2.9c-3.3,3.3-7.2,7.1-7.2,7.1h4.5c0,0,0.5-0.5,1.6-1.7h4.6l-0.4,1.7h4.6
		L95.2,12.9z M89.2,18.7h-2.8c0.1-0.1,0.3-0.3,0.4-0.5c2.8-2.9,3.2-2.7,3.2-2.7L89.2,18.7z"/>
	<path class="st0" d="M53.9,12.9c-1.1-0.1-6-1.2-10,2.9c-3.3,3.3-7.2,7.1-7.2,7.1h4.5c0,0,0.5-0.5,1.6-1.7h4.6L47,22.9h4.6
		L53.9,12.9z M48,18.7h-2.8c0.1-0.1,0.3-0.3,0.4-0.5c2.8-2.9,3.2-2.7,3.2-2.7L48,18.7z"/>
	<path class="st0" d="M70.1,12.8c-1.9,0-3.2,0.7-4,2.1l-1.6,2.8l-2.2-5l-0.9,0c-1.9,0-3.8,1.3-4.7,2.9l-4.2,7.2h4.4l2.9-4.9l2.2,4.9
		h3.9l5.8-10.1L70.1,12.8z"/>
	<path class="st0" d="M35,12.6c-5.5,0-9,2.8-10.5,5.4c-1.4,2.5,0,5.5,5.3,5.2c0,0,1.1,1.4,3.3,1.5c2.2,0.1,3.6-1.8,3.6-1.8
		s-0.8,0.3-1.6,0.2c-1-0.1-1.4-0.7-1.4-0.7c2.9-1.2,4.6-2.7,5.5-4.4C40.7,15.4,40.5,12.6,35,12.6 M33.9,17.9
		c-1.1,1.7-2.4,2.9-3.9,2.8c-1.9-0.1-1.3-1.5-0.4-2.8c1.2-1.6,2.6-3,4.2-2.9C35.7,15,35,16.3,33.9,17.9"/>
	<path class="st0" d="M75.2,12.8c-1.9,0-3.3,0.8-3.8,1.9l-0.5,0.8h4.3l-4.3,7.4h4.7l4.3-7.3l1.3,0c1.7,0,3.3-0.8,3.8-1.9l0.5-0.8
		L75.2,12.8z"/>
	<path class="st0" d="M102.5,16c3.4,1,4.9,1.8,4.7,3.3c-0.3,2.3-3.6,3.8-7.8,3.8c-4.1-0.1-6-1.5-6-1.5l2.5-2.1c0,0,1.8,0.9,4.2,1
		c1.6,0,1.8-0.3,1.8-0.5c0.1-0.3-0.3-0.4-1.4-0.8c-2.2-0.7-4.3-1.4-4-3.4c0.3-2.3,4.1-3.4,7.4-3.3c2.3,0.1,4.6,0.9,4.6,0.9
		c-0.9,1.6-2.5,1.8-3.1,1.8c-0.8,0-1.4-0.2-2.6-0.2c-1,0-1.3,0.4-1.1,0.6C101.9,15.8,102,15.9,102.5,16"/>
</g>
<polygon class="st0" points="3,3.4 3,26.4 27.9,26.4 "/>
<g>
	<path class="st1" d="M3,9.4c0,0.2,0,0.6,0.1,0.8c1,3.1,6.6,1.9,10.3,7.1c0,0,0.7,0.1,1.2-0.8c0,0-1-0.1-1-0.8c0,0,2,0.4,3.2,1.4
		c0,0,0,0.4-1.4,0.4c-0.3,0-0.4,0-0.8,0.5c0,0-1.1,1.2-2.3,1.2c-0.3,0-0.6-0.1-0.6-0.2c0,0,0-0.1,0.2-0.1c0,0,0.6,0.2,0.9-0.1
		c0,0-0.3-0.4-0.7-0.4c-0.3,0-0.6,0.1-0.7,0.3c0,0-0.9,1.1,1.7,2.3c3.7,1.6,5.8,4,5.5,4.7c0,0,0,0,0,0c-0.4-0.3-3.4-4-8.6-4.5
		c0,0,0-0.1,0-0.2c0.5-2.6-0.7-4.4-2-5.4c-1.4-1.1-4-2-4.8-4.5V9.4z"/>
</g>
<g id="Layer_2">
</g>
</svg>
